<mxfile host="app.diagrams.net" modified="2020-08-10T10:45:51.180Z" agent="5.0 (Macintosh; Intel Mac OS X 10_15_3) AppleWebKit/537.36 (KHTML, like Gecko) Chrome/84.0.4147.105 Safari/537.36" etag="9eW6PE9YOSaiD6MNbofp" version="13.6.0" type="github">
  <diagram id="AcBS0xOcSWuDg6sKBTs4" name="第 1 页">
    <mxGraphModel dx="718" dy="471" grid="1" gridSize="10" guides="1" tooltips="1" connect="1" arrows="1" fold="1" page="1" pageScale="1" pageWidth="827" pageHeight="1169" math="0" shadow="0">
      <root>
        <mxCell id="0" />
        <mxCell id="1" parent="0" />
        <mxCell id="buQ5AT8or2FTamIqZGvH-9" style="edgeStyle=orthogonalEdgeStyle;rounded=0;orthogonalLoop=1;jettySize=auto;html=1;exitX=0.5;exitY=1;exitDx=0;exitDy=0;entryX=0.5;entryY=0;entryDx=0;entryDy=0;" parent="1" source="buQ5AT8or2FTamIqZGvH-1" target="buQ5AT8or2FTamIqZGvH-8" edge="1">
          <mxGeometry relative="1" as="geometry" />
        </mxCell>
        <mxCell id="buQ5AT8or2FTamIqZGvH-1" value="monolog" style="rounded=1;whiteSpace=wrap;html=1;" parent="1" vertex="1">
          <mxGeometry x="230" y="25" width="70" height="30" as="geometry" />
        </mxCell>
        <mxCell id="buQ5AT8or2FTamIqZGvH-5" style="edgeStyle=orthogonalEdgeStyle;rounded=0;orthogonalLoop=1;jettySize=auto;html=1;exitX=1;exitY=0.5;exitDx=0;exitDy=0;entryX=0;entryY=0.5;entryDx=0;entryDy=0;endArrow=none;endFill=0;" parent="1" source="buQ5AT8or2FTamIqZGvH-2" target="buQ5AT8or2FTamIqZGvH-4" edge="1">
          <mxGeometry relative="1" as="geometry" />
        </mxCell>
        <mxCell id="buQ5AT8or2FTamIqZGvH-7" style="edgeStyle=orthogonalEdgeStyle;rounded=0;orthogonalLoop=1;jettySize=auto;html=1;exitX=0.5;exitY=1;exitDx=0;exitDy=0;entryX=0.5;entryY=0;entryDx=0;entryDy=0;" parent="1" source="buQ5AT8or2FTamIqZGvH-2" target="buQ5AT8or2FTamIqZGvH-3" edge="1">
          <mxGeometry relative="1" as="geometry" />
        </mxCell>
        <mxCell id="buQ5AT8or2FTamIqZGvH-2" value="Handler处理程序&lt;br&gt;(一个或者多个)" style="rounded=1;whiteSpace=wrap;html=1;" parent="1" vertex="1">
          <mxGeometry x="205" y="185" width="120" height="40" as="geometry" />
        </mxCell>
        <mxCell id="buQ5AT8or2FTamIqZGvH-3" value="日志内容" style="rounded=1;whiteSpace=wrap;html=1;" parent="1" vertex="1">
          <mxGeometry x="225" y="265" width="80" height="30" as="geometry" />
        </mxCell>
        <mxCell id="buQ5AT8or2FTamIqZGvH-4" value="pushHandler()&lt;br&gt;多种格式；写入文件、邮件、redis、mongo等&lt;br&gt;&amp;nbsp;&amp;nbsp;&lt;br&gt;1、入栈&lt;br&gt;2、是否冒泡，即是否继续执行下去" style="rounded=0;whiteSpace=wrap;html=1;" parent="1" vertex="1">
          <mxGeometry x="430" y="170" width="150" height="125" as="geometry" />
        </mxCell>
        <mxCell id="buQ5AT8or2FTamIqZGvH-10" style="edgeStyle=orthogonalEdgeStyle;rounded=0;orthogonalLoop=1;jettySize=auto;html=1;exitX=0.5;exitY=1;exitDx=0;exitDy=0;entryX=0.5;entryY=0;entryDx=0;entryDy=0;" parent="1" source="buQ5AT8or2FTamIqZGvH-8" target="buQ5AT8or2FTamIqZGvH-2" edge="1">
          <mxGeometry relative="1" as="geometry" />
        </mxCell>
        <mxCell id="buQ5AT8or2FTamIqZGvH-8" value="通道" style="rounded=1;whiteSpace=wrap;html=1;" parent="1" vertex="1">
          <mxGeometry x="305" y="105" width="70" height="30" as="geometry" />
        </mxCell>
        <mxCell id="80oJODJrUoDhNJJXT5gs-1" value="" style="rounded=0;whiteSpace=wrap;html=1;" vertex="1" parent="1">
          <mxGeometry x="67" y="383" width="90" height="210" as="geometry" />
        </mxCell>
        <mxCell id="80oJODJrUoDhNJJXT5gs-2" value="" style="endArrow=none;html=1;" edge="1" parent="1" target="80oJODJrUoDhNJJXT5gs-1">
          <mxGeometry width="50" height="50" relative="1" as="geometry">
            <mxPoint x="67" y="463" as="sourcePoint" />
            <mxPoint x="117" y="413" as="targetPoint" />
          </mxGeometry>
        </mxCell>
        <mxCell id="80oJODJrUoDhNJJXT5gs-3" value="debug" style="rounded=0;whiteSpace=wrap;html=1;" vertex="1" parent="1">
          <mxGeometry x="67" y="383" width="90" height="30" as="geometry" />
        </mxCell>
        <mxCell id="80oJODJrUoDhNJJXT5gs-4" value="日志级别（向上兼容）" style="text;html=1;strokeColor=none;fillColor=none;align=center;verticalAlign=middle;whiteSpace=wrap;rounded=0;" vertex="1" parent="1">
          <mxGeometry x="60" y="350" width="118" height="30" as="geometry" />
        </mxCell>
        <mxCell id="80oJODJrUoDhNJJXT5gs-5" value="info" style="rounded=0;whiteSpace=wrap;html=1;" vertex="1" parent="1">
          <mxGeometry x="67" y="413" width="90" height="30" as="geometry" />
        </mxCell>
        <mxCell id="80oJODJrUoDhNJJXT5gs-6" value="notice" style="rounded=0;whiteSpace=wrap;html=1;" vertex="1" parent="1">
          <mxGeometry x="67" y="443" width="90" height="30" as="geometry" />
        </mxCell>
        <mxCell id="80oJODJrUoDhNJJXT5gs-7" value="warning" style="rounded=0;whiteSpace=wrap;html=1;" vertex="1" parent="1">
          <mxGeometry x="67" y="473" width="90" height="30" as="geometry" />
        </mxCell>
        <mxCell id="80oJODJrUoDhNJJXT5gs-8" value="error" style="rounded=0;whiteSpace=wrap;html=1;" vertex="1" parent="1">
          <mxGeometry x="67" y="503" width="90" height="30" as="geometry" />
        </mxCell>
        <mxCell id="80oJODJrUoDhNJJXT5gs-9" value="critical" style="rounded=0;whiteSpace=wrap;html=1;" vertex="1" parent="1">
          <mxGeometry x="67" y="533" width="90" height="30" as="geometry" />
        </mxCell>
        <mxCell id="80oJODJrUoDhNJJXT5gs-10" value="alert" style="rounded=0;whiteSpace=wrap;html=1;" vertex="1" parent="1">
          <mxGeometry x="67" y="563" width="90" height="30" as="geometry" />
        </mxCell>
        <mxCell id="80oJODJrUoDhNJJXT5gs-12" value="" style="shape=flexArrow;endArrow=classic;html=1;" edge="1" parent="1">
          <mxGeometry width="50" height="50" relative="1" as="geometry">
            <mxPoint x="187" y="398" as="sourcePoint" />
            <mxPoint x="187" y="578" as="targetPoint" />
          </mxGeometry>
        </mxCell>
        <mxCell id="80oJODJrUoDhNJJXT5gs-13" value="越来越严重" style="edgeLabel;html=1;align=center;verticalAlign=middle;resizable=0;points=[];" vertex="1" connectable="0" parent="80oJODJrUoDhNJJXT5gs-12">
          <mxGeometry x="-0.3" y="4" relative="1" as="geometry">
            <mxPoint as="offset" />
          </mxGeometry>
        </mxCell>
      </root>
    </mxGraphModel>
  </diagram>
</mxfile>
